<?xml version="1.0" encoding="UTF-8"?>
<!DOCTYPE svg PUBLIC "-//W3C//DTD SVG 1.1//EN" "http://www.w3.org/Graphics/SVG/1.1/DTD/svg11.dtd">
<svg xmlns="http://www.w3.org/2000/svg" version="1.1" width="239px" height="211px" style="shape-rendering:geometricPrecision; text-rendering:geometricPrecision; image-rendering:optimizeQuality; fill-rule:evenodd; clip-rule:evenodd" xmlns:xlink="http://www.w3.org/1999/xlink">
<g><path style="opacity:0.984" fill="#d5abe5" d="M 127.5,9.5 C 129.898,9.25939 131.898,9.92606 133.5,11.5C 131.214,11.405 129.214,10.7384 127.5,9.5 Z"/></g>
<g><path style="opacity:1" fill="#9345b5" d="M 127.5,9.5 C 129.214,10.7384 131.214,11.405 133.5,11.5C 134.167,12.1667 134.833,12.8333 135.5,13.5C 134.5,13.5 133.5,13.5 132.5,13.5C 121.857,9.22021 111.524,9.55354 101.5,14.5C 96.9554,14.4503 93.2887,16.117 90.5,19.5C 89.3951,20.6005 88.0618,21.2671 86.5,21.5C 87.5,20.1667 88.5,18.8333 89.5,17.5C 91.3356,15.412 93.6689,14.0787 96.5,13.5C 100.533,12.9751 104.2,11.6418 107.5,9.5C 114.167,8.16667 120.833,8.16667 127.5,9.5 Z"/></g>
<g><path style="opacity:0.992" fill="#a771bf" d="M 107.5,9.5 C 104.2,11.6418 100.533,12.9751 96.5,13.5C 99.6599,11 103.327,9.6667 107.5,9.5 Z"/></g>
<g><path style="opacity:1" fill="#931dc7" d="M 132.5,13.5 C 132.611,14.1174 132.944,14.6174 133.5,15C 131.5,15.6667 129.5,16.3333 127.5,17C 129.516,17.8995 131.183,19.2328 132.5,21C 131.579,22.756 130.412,22.9227 129,21.5C 126.405,23.1458 123.572,23.8125 120.5,23.5C 117.058,22.2521 113.392,21.4188 109.5,21C 109.167,20.6667 108.833,20.3333 108.5,20C 110.5,19.6667 112.5,19.3333 114.5,19C 113.552,18.5172 112.552,18.3505 111.5,18.5C 111.833,14.6768 110.166,13.1768 106.5,14C 107.706,15.0177 107.373,15.5177 105.5,15.5C 104.151,15.1543 102.817,14.821 101.5,14.5C 111.524,9.55354 121.857,9.22021 132.5,13.5 Z"/></g>
<g><path style="opacity:0.999" fill="#951fc3" d="M 132.5,13.5 C 133.5,13.5 134.5,13.5 135.5,13.5C 135.611,14.1174 135.944,14.6174 136.5,15C 138.473,15.4955 140.473,15.6621 142.5,15.5C 144.587,19.5744 147.921,22.2411 152.5,23.5C 152.738,25.4044 153.738,26.7377 155.5,27.5C 155.5,28.1667 155.5,28.8333 155.5,29.5C 154.292,28.7659 152.959,28.4326 151.5,28.5C 151.719,29.675 151.386,30.675 150.5,31.5C 145.524,29.4456 145.524,27.9456 150.5,27C 149.663,25.9887 149.33,24.8221 149.5,23.5C 146.797,23.0445 144.13,22.3779 141.5,21.5C 139.945,21.722 138.611,22.3887 137.5,23.5C 134.982,22.4181 132.982,23.0848 131.5,25.5C 124.922,24.5399 118.255,24.2066 111.5,24.5C 114.287,23.5233 117.287,23.19 120.5,23.5C 123.572,23.8125 126.405,23.1458 129,21.5C 130.412,22.9227 131.579,22.756 132.5,21C 131.183,19.2328 129.516,17.8995 127.5,17C 129.5,16.3333 131.5,15.6667 133.5,15C 132.944,14.6174 132.611,14.1174 132.5,13.5 Z"/></g>
<g><path style="opacity:1" fill="#aa67c0" d="M 133.5,11.5 C 136.912,12.0421 139.912,13.3754 142.5,15.5C 140.473,15.6621 138.473,15.4955 136.5,15C 135.944,14.6174 135.611,14.1174 135.5,13.5C 134.833,12.8333 134.167,12.1667 133.5,11.5 Z"/></g>
<g><path style="opacity:0.992" fill="#a967c2" d="M 142.5,15.5 C 146.603,17.2164 149.936,19.8831 152.5,23.5C 147.921,22.2411 144.587,19.5744 142.5,15.5 Z"/></g>
<g><path style="opacity:1" fill="#8618c3" d="M 120.5,23.5 C 117.287,23.19 114.287,23.5233 111.5,24.5C 106.763,25.3675 102.096,26.5342 97.5,28C 95.6234,30.126 94.6234,32.626 94.5,35.5C 93.3121,34.3157 92.1455,34.3157 91,35.5C 90.6667,39.5 90.3333,43.5 90,47.5C 90.0723,42.6918 89.239,38.1918 87.5,34C 88.5523,32.2835 87.8856,31.2835 85.5,31C 87.4054,30.1739 87.7388,29.0072 86.5,27.5C 85.5,28.8333 84.5,30.1667 83.5,31.5C 83.1667,31.3333 82.8333,31.1667 82.5,31C 83.5,28.6667 84.5,26.3333 85.5,24C 87.4174,24.0275 89.084,24.8608 90.5,26.5C 91.8448,25.6533 92.8448,24.4866 93.5,23C 91.9371,22.2411 90.9371,21.0744 90.5,19.5C 93.2887,16.117 96.9554,14.4503 101.5,14.5C 102.817,14.821 104.151,15.1543 105.5,15.5C 107.373,15.5177 107.706,15.0177 106.5,14C 110.166,13.1768 111.833,14.6768 111.5,18.5C 112.552,18.3505 113.552,18.5172 114.5,19C 112.5,19.3333 110.5,19.6667 108.5,20C 108.833,20.3333 109.167,20.6667 109.5,21C 113.392,21.4188 117.058,22.2521 120.5,23.5 Z"/></g>
<g><path style="opacity:0.922" fill="#cb99d5" d="M 152.5,23.5 C 154.262,24.2623 155.262,25.5956 155.5,27.5C 153.738,26.7377 152.738,25.4044 152.5,23.5 Z"/></g>
<g><path style="opacity:1" fill="#8f56b4" d="M 89.5,17.5 C 88.5,18.8333 87.5,20.1667 86.5,21.5C 84.39,22.4525 83.2233,24.1192 83,26.5C 81.0737,28.5389 78.907,30.2055 76.5,31.5C 79.4481,25.5517 83.7815,20.885 89.5,17.5 Z"/></g>
<g><path style="opacity:0.996" fill="#8337ac" d="M 111.5,24.5 C 118.255,24.2066 124.922,24.5399 131.5,25.5C 137.585,27.8628 142.918,31.1961 147.5,35.5C 150.481,38.1348 151.814,41.4682 151.5,45.5C 142.148,28.5048 127.815,22.3382 108.5,27C 99.7986,29.3662 95.132,35.0328 94.5,44C 95.7212,49.837 97.0546,55.6703 98.5,61.5C 94.7727,54.0819 93.106,46.4152 93.5,38.5C 93.5569,37.391 93.8902,36.391 94.5,35.5C 94.6234,32.626 95.6234,30.126 97.5,28C 102.096,26.5342 106.763,25.3675 111.5,24.5 Z"/></g>
<g><path style="opacity:0.995" fill="#991dcb" d="M 155.5,29.5 C 155.5,30.1667 155.5,30.8333 155.5,31.5C 155.261,33.4672 155.594,35.3005 156.5,37C 154.256,39.3486 153.089,38.8486 153,35.5C 152.667,36.1667 152.333,36.8333 152,37.5C 150.67,36.4178 149.17,35.7512 147.5,35.5C 142.918,31.1961 137.585,27.8628 131.5,25.5C 132.982,23.0848 134.982,22.4181 137.5,23.5C 138.611,22.3887 139.945,21.722 141.5,21.5C 144.13,22.3779 146.797,23.0445 149.5,23.5C 149.33,24.8221 149.663,25.9887 150.5,27C 145.524,27.9456 145.524,29.4456 150.5,31.5C 151.386,30.675 151.719,29.675 151.5,28.5C 152.959,28.4326 154.292,28.7659 155.5,29.5 Z"/></g>
<g><path style="opacity:0.984" fill="#a65fc2" d="M 155.5,27.5 C 157.9,29.2964 159.567,31.6298 160.5,34.5C 160.833,35.8333 161.167,37.1667 161.5,38.5C 161.167,38.5 160.833,38.5 160.5,38.5C 159.98,35.3844 158.314,33.0511 155.5,31.5C 155.5,30.8333 155.5,30.1667 155.5,29.5C 155.5,28.8333 155.5,28.1667 155.5,27.5 Z"/></g>
<g><path style="opacity:0.31" fill="#e2bced" d="M 160.5,34.5 C 162.655,36.6174 163.655,39.284 163.5,42.5C 162.833,41.5 162.167,40.5 161.5,39.5C 161.5,39.1667 161.5,38.8333 161.5,38.5C 161.167,37.1667 160.833,35.8333 160.5,34.5 Z"/></g>
<g><path style="opacity:1" fill="#8a5db1" d="M 76.5,31.5 C 76.3531,34.7916 75.3531,37.7916 73.5,40.5C 72.5,42.5 71.5,44.5 70.5,46.5C 70.9564,40.7803 72.9564,35.7803 76.5,31.5 Z"/></g>
<g><path style="opacity:0.988" fill="#8e1cc5" d="M 155.5,31.5 C 158.314,33.0511 159.98,35.3844 160.5,38.5C 160.335,41.5184 160.502,44.5184 161,47.5C 162.314,49.2685 163.147,51.2685 163.5,53.5C 162.654,57.1178 162.32,60.7845 162.5,64.5C 161.5,64.5 160.5,64.5 159.5,64.5C 159.665,67.8499 159.498,71.1832 159,74.5C 157.989,75.3366 156.822,75.67 155.5,75.5C 155.865,72.2544 154.865,69.5877 152.5,67.5C 153.246,66.2638 153.579,64.9305 153.5,63.5C 154.533,58.1537 154.533,52.8204 153.5,47.5C 152.818,46.7573 152.151,46.0906 151.5,45.5C 151.814,41.4682 150.481,38.1348 147.5,35.5C 149.17,35.7512 150.67,36.4178 152,37.5C 152.333,36.8333 152.667,36.1667 153,35.5C 153.089,38.8486 154.256,39.3486 156.5,37C 155.594,35.3005 155.261,33.4672 155.5,31.5 Z"/></g>
<g><path style="opacity:1" fill="#7113b8" d="M 90.5,19.5 C 90.9371,21.0744 91.9371,22.2411 93.5,23C 92.8448,24.4866 91.8448,25.6533 90.5,26.5C 89.084,24.8608 87.4174,24.0275 85.5,24C 84.5,26.3333 83.5,28.6667 82.5,31C 82.8333,31.1667 83.1667,31.3333 83.5,31.5C 84.5,30.1667 85.5,28.8333 86.5,27.5C 87.7388,29.0072 87.4054,30.1739 85.5,31C 87.8856,31.2835 88.5523,32.2835 87.5,34C 89.239,38.1918 90.0723,42.6918 90,47.5C 90.3333,43.5 90.6667,39.5 91,35.5C 92.1455,34.3157 93.3121,34.3157 94.5,35.5C 93.8902,36.391 93.5569,37.391 93.5,38.5C 92.9558,44.173 91.7892,49.8397 90,55.5C 89.6667,53.8333 89.3333,52.1667 89,50.5C 88.6667,51.5 88.3333,52.5 88,53.5C 87.2797,51.8876 87.4464,50.3876 88.5,49C 87.0379,49.0628 85.7046,49.7295 84.5,51C 85.056,51.3826 85.3893,51.8826 85.5,52.5C 84.5041,52.5858 83.6708,52.2524 83,51.5C 82.3109,52.3567 81.4776,53.0233 80.5,53.5C 79.7719,50.7875 78.9385,48.1209 78,45.5C 76.0973,47.8206 74.5973,47.4873 73.5,44.5C 73.5,43.1667 73.5,41.8333 73.5,40.5C 75.3531,37.7916 76.3531,34.7916 76.5,31.5C 78.907,30.2055 81.0737,28.5389 83,26.5C 83.2233,24.1192 84.39,22.4525 86.5,21.5C 88.0618,21.2671 89.3951,20.6005 90.5,19.5 Z"/></g>
<g><path style="opacity:1" fill="#873eae" d="M 151.5,45.5 C 152.151,46.0906 152.818,46.7573 153.5,47.5C 154.533,52.8204 154.533,58.1537 153.5,63.5C 152.883,63.6107 152.383,63.944 152,64.5C 151.503,66.8098 151.337,69.1432 151.5,71.5C 150.448,71.3505 149.448,71.5172 148.5,72C 146.532,75.8063 143.532,78.3063 139.5,79.5C 149.268,70.197 153.268,58.8637 151.5,45.5 Z"/></g>
<g><path style="opacity:0.976" fill="#ae70c6" d="M 161.5,39.5 C 162.167,40.5 162.833,41.5 163.5,42.5C 165.025,46.7279 165.692,51.2279 165.5,56C 165.692,60.7721 165.025,65.2721 163.5,69.5C 163.858,65.3422 164.192,61.1755 164.5,57C 163.811,51.1046 162.811,45.2713 161.5,39.5 Z"/></g>
<g><path style="opacity:1" fill="#6713b0" d="M 93.5,38.5 C 93.106,46.4152 94.7727,54.0819 98.5,61.5C 100.065,63.5093 101.065,65.8427 101.5,68.5C 101.833,71.1667 102.167,73.8333 102.5,76.5C 100.338,76.8972 99.0046,78.2305 98.5,80.5C 97.6143,79.675 97.281,78.675 97.5,77.5C 97.4413,73.9943 95.7746,71.8276 92.5,71C 95.7661,70.1871 96.2661,68.3538 94,65.5C 91.2323,62.9119 89.2323,63.2452 88,66.5C 87.5172,65.552 87.3505,64.552 87.5,63.5C 85.8967,63.6882 84.5634,63.1882 83.5,62C 84.0563,59.7635 85.0563,57.7635 86.5,56C 85.6634,54.9887 85.33,53.8221 85.5,52.5C 85.3893,51.8826 85.056,51.3826 84.5,51C 85.7046,49.7295 87.0379,49.0628 88.5,49C 87.4464,50.3876 87.2797,51.8876 88,53.5C 88.3333,52.5 88.6667,51.5 89,50.5C 89.3333,52.1667 89.6667,53.8333 90,55.5C 91.7892,49.8397 92.9558,44.173 93.5,38.5 Z"/></g>
<g><path style="opacity:1" fill="#610eb1" d="M 73.5,44.5 C 74.5973,47.4873 76.0973,47.8206 78,45.5C 78.9385,48.1209 79.7719,50.7875 80.5,53.5C 81.4776,53.0233 82.3109,52.3567 83,51.5C 83.6708,52.2524 84.5041,52.5858 85.5,52.5C 85.33,53.8221 85.6634,54.9887 86.5,56C 85.0563,57.7635 84.0563,59.7635 83.5,62C 84.5634,63.1882 85.8967,63.6882 87.5,63.5C 87.3505,64.552 87.5172,65.552 88,66.5C 89.2323,63.2452 91.2323,62.9119 94,65.5C 96.2661,68.3538 95.7661,70.1871 92.5,71C 95.7746,71.8276 97.4413,73.9943 97.5,77.5C 95.02,79.4969 92.3533,79.8302 89.5,78.5C 89.1156,76.0706 88.449,73.7373 87.5,71.5C 85.1667,71.5 82.8333,71.5 80.5,71.5C 80.067,68.7147 78.7337,66.3813 76.5,64.5C 75.4528,65.9223 75.4528,67.4223 76.5,69C 76.1918,70.4595 75.5251,71.6261 74.5,72.5C 71.0785,63.1449 70.7452,53.8116 73.5,44.5 Z"/></g>
<g><path style="opacity:1" fill="#895bac" d="M 70.5,46.5 C 70.1714,55.5904 70.838,64.5904 72.5,73.5C 70.3193,68.3426 68.986,62.8426 68.5,57C 69.0624,53.3458 69.729,49.8458 70.5,46.5 Z"/></g>
<g><path style="opacity:1" fill="#590cac" d="M 89.5,78.5 C 89.5,79.5 89.5,80.5 89.5,81.5C 90.552,81.3505 91.552,81.5172 92.5,82C 93.3301,83.7467 94.3301,85.4134 95.5,87C 95.1667,87.5 94.8333,88 94.5,88.5C 93.5791,86.244 91.9124,85.244 89.5,85.5C 89.3692,81.3482 87.8692,80.6815 85,83.5C 84.51,84.7932 84.3433,86.1266 84.5,87.5C 83.71,86.3915 83.21,85.0581 83,83.5C 81.8173,84.731 80.6507,84.731 79.5,83.5C 77.627,79.8611 75.9603,76.1945 74.5,72.5C 75.5251,71.6261 76.1918,70.4595 76.5,69C 75.4528,67.4223 75.4528,65.9223 76.5,64.5C 78.7337,66.3813 80.067,68.7147 80.5,71.5C 82.8333,71.5 85.1667,71.5 87.5,71.5C 88.449,73.7373 89.1156,76.0706 89.5,78.5 Z"/></g>
<g><path style="opacity:0.012" fill="#bf88d5" d="M 163.5,69.5 C 162.602,76.6288 159.602,82.6288 154.5,87.5C 158.01,81.8141 161.01,75.8141 163.5,69.5 Z"/></g>
<g><path style="opacity:1" fill="#7e4ca9" d="M 101.5,68.5 C 103.459,72.1419 105.459,75.8085 107.5,79.5C 106.167,78.8333 104.833,78.1667 103.5,77.5C 103.5,76.8333 103.167,76.5 102.5,76.5C 102.167,73.8333 101.833,71.1667 101.5,68.5 Z"/></g>
<g><path style="opacity:0.482" fill="#aa8ac1" d="M 73.5,76.5 C 75.2503,77.6594 76.2503,79.326 76.5,81.5C 74.7497,80.3406 73.7497,78.674 73.5,76.5 Z"/></g>
<g><path style="opacity:1" fill="#751ab3" d="M 160.5,38.5 C 160.833,38.5 161.167,38.5 161.5,38.5C 161.5,38.8333 161.5,39.1667 161.5,39.5C 162.811,45.2713 163.811,51.1046 164.5,57C 164.192,61.1755 163.858,65.3422 163.5,69.5C 161.01,75.8141 158.01,81.8141 154.5,87.5C 150.718,91.6234 146.385,94.9567 141.5,97.5C 140.833,97.5 140.167,97.5 139.5,97.5C 139.53,96.5028 139.03,95.8361 138,95.5C 137,96.1667 136,96.8333 135,97.5C 133.392,97.0261 133.226,96.3594 134.5,95.5C 136.617,93.276 139.117,91.6093 142,90.5C 143.814,91.7596 145.647,91.7596 147.5,90.5C 147.291,89.914 146.957,89.414 146.5,89C 149.245,88.9468 151.245,87.7802 152.5,85.5C 149.818,83.1628 147.151,80.8295 144.5,78.5C 142.421,79.9118 140.421,81.4118 138.5,83C 139.711,83.8928 139.711,84.7261 138.5,85.5C 136.253,86.3742 133.92,86.7076 131.5,86.5C 132.167,85.5 132.833,84.5 133.5,83.5C 135.147,81.6736 137.147,80.3403 139.5,79.5C 143.532,78.3063 146.532,75.8063 148.5,72C 149.448,71.5172 150.448,71.3505 151.5,71.5C 151.337,69.1432 151.503,66.8098 152,64.5C 152.383,63.944 152.883,63.6107 153.5,63.5C 153.579,64.9305 153.246,66.2638 152.5,67.5C 154.865,69.5877 155.865,72.2544 155.5,75.5C 156.822,75.67 157.989,75.3366 159,74.5C 159.498,71.1832 159.665,67.8499 159.5,64.5C 160.5,64.5 161.5,64.5 162.5,64.5C 162.32,60.7845 162.654,57.1178 163.5,53.5C 163.147,51.2685 162.314,49.2685 161,47.5C 160.502,44.5184 160.335,41.5184 160.5,38.5 Z"/></g>
<g><path style="opacity:1" fill="#590daf" d="M 102.5,76.5 C 103.167,76.5 103.5,76.8333 103.5,77.5C 104.896,79.7478 106.563,81.9144 108.5,84C 106.699,84.3173 106.366,84.984 107.5,86C 106.044,86.4226 105.544,87.2559 106,88.5C 109.466,90.3218 112.633,92.4884 115.5,95C 114.167,95.3333 112.833,95.6667 111.5,96C 114.934,96.8911 118.101,96.3911 121,94.5C 123.292,95.9305 125.792,96.7639 128.5,97C 121.833,97.6667 121.833,98.3333 128.5,99C 121.754,98.8689 115.421,99.7023 109.5,101.5C 103.995,100.741 98.6614,99.4074 93.5,97.5C 93.4142,96.5041 93.7476,95.6708 94.5,95C 90.0033,93.8436 86.67,91.3436 84.5,87.5C 84.3433,86.1266 84.51,84.7932 85,83.5C 87.8692,80.6815 89.3692,81.3482 89.5,85.5C 91.9124,85.244 93.5791,86.244 94.5,88.5C 94.8333,88 95.1667,87.5 95.5,87C 94.3301,85.4134 93.3301,83.7467 92.5,82C 91.552,81.5172 90.552,81.3505 89.5,81.5C 89.5,80.5 89.5,79.5 89.5,78.5C 92.3533,79.8302 95.02,79.4969 97.5,77.5C 97.281,78.675 97.6143,79.675 98.5,80.5C 99.0046,78.2305 100.338,76.8972 102.5,76.5 Z"/></g>
<g><path style="opacity:0.992" fill="#521a91" d="M 73.5,40.5 C 73.5,41.8333 73.5,43.1667 73.5,44.5C 70.7452,53.8116 71.0785,63.1449 74.5,72.5C 75.9603,76.1945 77.627,79.8611 79.5,83.5C 80.6507,84.731 81.8173,84.731 83,83.5C 83.21,85.0581 83.71,86.3915 84.5,87.5C 86.67,91.3436 90.0033,93.8436 94.5,95C 93.7476,95.6708 93.4142,96.5041 93.5,97.5C 89.6082,95.9379 86.2749,93.6046 83.5,90.5C 83.1667,88.1667 81.8333,86.8333 79.5,86.5C 78.075,85.078 77.075,83.4113 76.5,81.5C 76.2503,79.326 75.2503,77.6594 73.5,76.5C 72.596,75.791 72.2627,74.791 72.5,73.5C 70.838,64.5904 70.1714,55.5904 70.5,46.5C 71.5,44.5 72.5,42.5 73.5,40.5 Z"/></g>
<g><path style="opacity:0.914" fill="#8b68b1" d="M 79.5,86.5 C 81.8333,86.8333 83.1667,88.1667 83.5,90.5C 81.8333,89.5 80.5,88.1667 79.5,86.5 Z"/></g>
<g><path style="opacity:1" fill="#6611b2" d="M 103.5,77.5 C 104.833,78.1667 106.167,78.8333 107.5,79.5C 107.833,81.8333 109.167,83.1667 111.5,83.5C 112.71,83.9321 113.71,84.5987 114.5,85.5C 115.167,86.1667 115.833,86.8333 116.5,87.5C 121.457,88.5966 126.457,88.2633 131.5,86.5C 133.92,86.7076 136.253,86.3742 138.5,85.5C 139.711,84.7261 139.711,83.8928 138.5,83C 140.421,81.4118 142.421,79.9118 144.5,78.5C 147.151,80.8295 149.818,83.1628 152.5,85.5C 151.245,87.7802 149.245,88.9468 146.5,89C 146.957,89.414 147.291,89.914 147.5,90.5C 145.647,91.7596 143.814,91.7596 142,90.5C 139.117,91.6093 136.617,93.276 134.5,95.5C 133.226,96.3594 133.392,97.0261 135,97.5C 136,96.8333 137,96.1667 138,95.5C 139.03,95.8361 139.53,96.5028 139.5,97.5C 135.634,98.5479 131.967,100.048 128.5,102C 121.986,102.82 115.653,102.653 109.5,101.5C 115.421,99.7023 121.754,98.8689 128.5,99C 121.833,98.3333 121.833,97.6667 128.5,97C 125.792,96.7639 123.292,95.9305 121,94.5C 118.101,96.3911 114.934,96.8911 111.5,96C 112.833,95.6667 114.167,95.3333 115.5,95C 112.633,92.4884 109.466,90.3218 106,88.5C 105.544,87.2559 106.044,86.4226 107.5,86C 106.366,84.984 106.699,84.3173 108.5,84C 106.563,81.9144 104.896,79.7478 103.5,77.5 Z"/></g>
<g><path style="opacity:1" fill="#5c2594" d="M 133.5,83.5 C 132.833,84.5 132.167,85.5 131.5,86.5C 126.457,88.2633 121.457,88.5966 116.5,87.5C 119.059,87.8016 121.393,87.4682 123.5,86.5C 126.833,85.5 130.167,84.5 133.5,83.5 Z"/></g>
<g><path style="opacity:0.286" fill="#a981cd" d="M 114.5,85.5 C 117.455,86.1587 120.455,86.4921 123.5,86.5C 121.393,87.4682 119.059,87.8016 116.5,87.5C 115.833,86.8333 115.167,86.1667 114.5,85.5 Z"/></g>
<g><path style="opacity:0.863" fill="#a77ecc" d="M 107.5,79.5 C 109.167,80.5 110.5,81.8333 111.5,83.5C 109.167,83.1667 107.833,81.8333 107.5,79.5 Z"/></g>
<g><path style="opacity:1" fill="#c186d8" d="M 161.5,98.5 C 170.472,96.9462 179.472,97.4462 188.5,100C 191.898,101.357 194.898,103.19 197.5,105.5C 192.973,103.436 188.307,101.769 183.5,100.5C 182.167,100.5 180.833,100.5 179.5,100.5C 179.389,99.8826 179.056,99.3826 178.5,99C 172.843,98.5006 167.176,98.3339 161.5,98.5 Z"/></g>
<g><path style="opacity:0.969" fill="#a663c1" d="M 58.5,98.5 C 73.1947,95.2388 86.1947,98.5721 97.5,108.5C 94.4223,106.631 91.089,105.298 87.5,104.5C 83.4568,102.416 79.1234,100.583 74.5,99C 69.1771,98.5006 63.8437,98.334 58.5,98.5 Z"/></g>
<g><path style="opacity:1" fill="#b178cc" d="M 57.5,98.5 C 53.99,100.344 50.3233,102.011 46.5,103.5C 45.1667,103.833 43.8333,104.167 42.5,104.5C 46.8637,101.16 51.8637,99.1597 57.5,98.5 Z"/></g>
<g><path style="opacity:0.345" fill="#8f69b5" d="M 101.5,101.5 C 104.152,101.41 106.485,102.076 108.5,103.5C 105.848,103.59 103.515,102.924 101.5,101.5 Z"/></g>
<g><path style="opacity:0.997" fill="#623198" d="M 93.5,97.5 C 98.6614,99.4074 103.995,100.741 109.5,101.5C 115.653,102.653 121.986,102.82 128.5,102C 131.967,100.048 135.634,98.5479 139.5,97.5C 140.167,97.5 140.833,97.5 141.5,97.5C 131.335,103.575 120.335,105.575 108.5,103.5C 106.485,102.076 104.152,101.41 101.5,101.5C 98.5152,100.674 95.8485,99.341 93.5,97.5 Z"/></g>
<g><path style="opacity:1" fill="#7e18b9" d="M 160.5,98.5 C 160.833,98.5 161.167,98.5 161.5,98.5C 167.176,98.3339 172.843,98.5006 178.5,99C 179.056,99.3826 179.389,99.8826 179.5,100.5C 172.037,98.946 164.704,99.446 157.5,102C 157.043,102.414 156.709,102.914 156.5,103.5C 160.154,104.379 163.821,105.213 167.5,106C 163.571,107.029 159.571,107.863 155.5,108.5C 162.134,109.497 168.8,109.83 175.5,109.5C 175.5,110.5 175.5,111.5 175.5,112.5C 176.791,112.263 177.791,112.596 178.5,113.5C 173.968,113.182 169.634,113.515 165.5,114.5C 155.92,113.756 150.586,118.089 149.5,127.5C 149.167,127.5 148.833,127.5 148.5,127.5C 146.606,127.982 144.939,127.315 143.5,125.5C 142.466,123.447 140.966,121.78 139,120.5C 138.517,119.552 138.351,118.552 138.5,117.5C 139.552,117.351 140.552,117.517 141.5,118C 141.167,118.333 140.833,118.667 140.5,119C 141.966,119.635 143.3,120.469 144.5,121.5C 144.833,120.333 145.167,119.167 145.5,118C 144.502,115.173 143.836,112.507 143.5,110C 142.833,109.333 142.167,109.333 141.5,110C 139.797,112.332 137.797,114.165 135.5,115.5C 135.5,114.5 135.5,113.5 135.5,112.5C 137.749,111.92 139.415,110.587 140.5,108.5C 147.133,105.184 153.8,101.85 160.5,98.5 Z"/></g>
<g><path style="opacity:1" fill="#8e1bc6" d="M 179.5,100.5 C 180.833,100.5 182.167,100.5 183.5,100.5C 184.167,101.167 184.833,101.833 185.5,102.5C 182.394,101.685 179.061,101.685 175.5,102.5C 180.816,103.033 183.149,106.033 182.5,111.5C 186.398,111.585 190.064,111.085 193.5,110C 194.833,110.667 194.833,111.333 193.5,112C 190.956,113.092 188.289,113.759 185.5,114C 187.32,114.2 188.653,115.034 189.5,116.5C 185.773,115.652 182.107,114.652 178.5,113.5C 177.791,112.596 176.791,112.263 175.5,112.5C 175.5,111.5 175.5,110.5 175.5,109.5C 168.8,109.83 162.134,109.497 155.5,108.5C 159.571,107.863 163.571,107.029 167.5,106C 163.821,105.213 160.154,104.379 156.5,103.5C 156.709,102.914 157.043,102.414 157.5,102C 164.704,99.446 172.037,98.946 179.5,100.5 Z"/></g>
<g><path style="opacity:0.976" fill="#9356b4" d="M 160.5,98.5 C 153.8,101.85 147.133,105.184 140.5,108.5C 146.038,103.064 152.705,99.7308 160.5,98.5 Z"/></g>
<g><path style="opacity:1" fill="#881bbe" d="M 57.5,98.5 C 57.8333,98.5 58.1667,98.5 58.5,98.5C 63.8437,98.334 69.1771,98.5006 74.5,99C 79.1234,100.583 83.4568,102.416 87.5,104.5C 82.3317,103.342 77.165,102.009 72,100.5C 69.4579,101.683 66.7912,102.683 64,103.5C 63.7474,102.465 62.914,101.465 61.5,100.5C 57.6088,101.551 53.9421,103.051 50.5,105C 53.0472,105.66 55.5472,105.493 58,104.5C 59.9626,105.625 61.796,106.959 63.5,108.5C 69.5922,111.044 75.9256,112.711 82.5,113.5C 82.8627,114.183 83.1961,114.85 83.5,115.5C 74.6419,113.23 65.6419,112.897 56.5,114.5C 55.1266,114.657 53.7932,114.49 52.5,114C 53.9023,112.658 53.5689,111.824 51.5,111.5C 50.1362,112.043 48.8029,112.21 47.5,112C 46.3595,111.259 46.3595,110.425 47.5,109.5C 45.9223,108.702 44.2556,108.202 42.5,108C 43.056,107.617 43.3893,107.117 43.5,106.5C 44.6935,105.728 45.6935,104.728 46.5,103.5C 50.3233,102.011 53.99,100.344 57.5,98.5 Z"/></g>
<g><path style="opacity:0.063" fill="#cea0e0" d="M 97.5,108.5 C 101.5,110.5 104.5,113.5 106.5,117.5C 103.167,114.833 100.167,111.833 97.5,108.5 Z"/></g>
<g><path style="opacity:1" fill="#813bab" d="M 46.5,103.5 C 45.6935,104.728 44.6935,105.728 43.5,106.5C 41.1137,107.373 39.1137,108.873 37.5,111C 36.2068,111.49 34.8734,111.657 33.5,111.5C 35.6367,108.027 38.6367,105.694 42.5,104.5C 43.8333,104.167 45.1667,103.833 46.5,103.5 Z"/></g>
<g><path style="opacity:1" fill="#8c38b0" d="M 183.5,100.5 C 188.307,101.769 192.973,103.436 197.5,105.5C 199.772,106.441 201.772,107.774 203.5,109.5C 203.427,111.027 204.094,112.027 205.5,112.5C 206.419,115.089 208.086,117.089 210.5,118.5C 212.262,119.262 213.262,120.596 213.5,122.5C 214.443,126.332 215.777,129.999 217.5,133.5C 217.666,140.175 217.5,146.842 217,153.5C 216.902,156.522 216.068,159.189 214.5,161.5C 215.167,154.833 215.833,148.167 216.5,141.5C 215.748,133.971 213.581,126.971 210,120.5C 205.491,116.624 201.325,112.457 197.5,108C 193.567,105.864 189.567,104.031 185.5,102.5C 184.833,101.833 184.167,101.167 183.5,100.5 Z"/></g>
<g><path style="opacity:0.706" fill="#e7cbf4" d="M 203.5,109.5 C 204.906,109.973 205.573,110.973 205.5,112.5C 204.094,112.027 203.427,111.027 203.5,109.5 Z"/></g>
<g><path style="opacity:0.992" fill="#a97ec5" d="M 140.5,108.5 C 139.415,110.587 137.749,111.92 135.5,112.5C 136.585,110.413 138.251,109.08 140.5,108.5 Z"/></g>
<g><path style="opacity:1" fill="#941bc9" d="M 87.5,104.5 C 87.9893,107.324 89.656,108.657 92.5,108.5C 93.3287,111.469 93.4954,114.469 93,117.5C 92.2753,118.059 91.4419,118.392 90.5,118.5C 88.8228,117.813 87.1561,117.146 85.5,116.5C 84.8333,116.167 84.1667,115.833 83.5,115.5C 83.1961,114.85 82.8627,114.183 82.5,113.5C 75.9256,112.711 69.5922,111.044 63.5,108.5C 61.796,106.959 59.9626,105.625 58,104.5C 55.5472,105.493 53.0472,105.66 50.5,105C 53.9421,103.051 57.6088,101.551 61.5,100.5C 62.914,101.465 63.7474,102.465 64,103.5C 66.7912,102.683 69.4579,101.683 72,100.5C 77.165,102.009 82.3317,103.342 87.5,104.5 Z"/></g>
<g><path style="opacity:1" fill="#c28ad6" d="M 205.5,112.5 C 207.914,113.911 209.581,115.911 210.5,118.5C 208.086,117.089 206.419,115.089 205.5,112.5 Z"/></g>
<g><path style="opacity:1" fill="#8a3fad" d="M 83.5,115.5 C 84.1667,115.833 84.8333,116.167 85.5,116.5C 85.8333,117.167 86.1667,117.833 86.5,118.5C 75.5958,113.707 64.5958,113.374 53.5,117.5C 53.3893,116.883 53.056,116.383 52.5,116C 54.0581,115.79 55.3915,115.29 56.5,114.5C 65.6419,112.897 74.6419,113.23 83.5,115.5 Z"/></g>
<g><path style="opacity:0.969" fill="#7f45a8" d="M 33.5,111.5 C 33.2241,114.719 31.8907,117.385 29.5,119.5C 28.8333,119.5 28.5,119.833 28.5,120.5C 27.391,120.557 26.391,120.89 25.5,121.5C 27.0332,117.296 29.6998,113.963 33.5,111.5 Z"/></g>
<g><path style="opacity:0.999" fill="#7915bc" d="M 43.5,106.5 C 43.3893,107.117 43.056,107.617 42.5,108C 44.2556,108.202 45.9223,108.702 47.5,109.5C 46.3595,110.425 46.3595,111.259 47.5,112C 48.8029,112.21 50.1362,112.043 51.5,111.5C 53.5689,111.824 53.9023,112.658 52.5,114C 53.7932,114.49 55.1266,114.657 56.5,114.5C 55.3915,115.29 54.0581,115.79 52.5,116C 53.056,116.383 53.3893,116.883 53.5,117.5C 53.1583,118.338 52.4916,118.672 51.5,118.5C 50.6868,117.347 49.6868,117.347 48.5,118.5C 47.1622,121.52 45.8288,124.52 44.5,127.5C 43.0735,129.148 42.2401,131.148 42,133.5C 41.6667,133.833 41.3333,134.167 41,134.5C 40.6667,132.833 40.3333,131.167 40,129.5C 39.5172,130.448 39.3505,131.448 39.5,132.5C 37.9054,130.889 36.7388,128.889 36,126.5C 35.5065,124.866 35.3398,123.199 35.5,121.5C 32.9179,121.975 30.9179,121.308 29.5,119.5C 31.8907,117.385 33.2241,114.719 33.5,111.5C 34.8734,111.657 36.2068,111.49 37.5,111C 39.1137,108.873 41.1137,107.373 43.5,106.5 Z"/></g>
<g><path style="opacity:0.997" fill="#961ec7" d="M 185.5,102.5 C 189.567,104.031 193.567,105.864 197.5,108C 201.325,112.457 205.491,116.624 210,120.5C 213.581,126.971 215.748,133.971 216.5,141.5C 213.871,140.286 211.204,140.286 208.5,141.5C 208.34,139.847 207.674,138.514 206.5,137.5C 205.833,136.5 205.167,135.5 204.5,134.5C 201.692,126.69 196.692,120.69 189.5,116.5C 188.653,115.034 187.32,114.2 185.5,114C 188.289,113.759 190.956,113.092 193.5,112C 194.833,111.333 194.833,110.667 193.5,110C 190.064,111.085 186.398,111.585 182.5,111.5C 183.149,106.033 180.816,103.033 175.5,102.5C 179.061,101.685 182.394,101.685 185.5,102.5 Z"/></g>
<g><path style="opacity:1" fill="#8244ad" d="M 51.5,118.5 C 48.6207,121.592 46.7873,125.259 46,129.5C 45.6447,135.23 46.1447,140.897 47.5,146.5C 45.0098,140.537 44.0098,134.204 44.5,127.5C 45.8288,124.52 47.1622,121.52 48.5,118.5C 49.6868,117.347 50.6868,117.347 51.5,118.5 Z"/></g>
<g><path style="opacity:0.992" fill="#7a46a5" d="M 135.5,112.5 C 135.5,113.5 135.5,114.5 135.5,115.5C 133.807,118.184 132.14,120.851 130.5,123.5C 129.207,125.808 127.874,128.142 126.5,130.5C 124.082,138.183 123.082,146.183 123.5,154.5C 120.342,138.466 124.342,124.466 135.5,112.5 Z"/></g>
<g><path style="opacity:0.976" fill="#8f3fb1" d="M 165.5,114.5 C 169.634,113.515 173.968,113.182 178.5,113.5C 182.107,114.652 185.773,115.652 189.5,116.5C 196.692,120.69 201.692,126.69 204.5,134.5C 200.742,127.573 195.408,122.073 188.5,118C 181.116,115.034 173.449,113.867 165.5,114.5 Z"/></g>
<g><path style="opacity:1" fill="#ba7cce" d="M 106.5,117.5 C 109.164,119.484 110.831,122.151 111.5,125.5C 110.5,125.5 109.5,125.5 108.5,125.5C 108.713,122.549 108.046,119.882 106.5,117.5 Z"/></g>
<g><path style="opacity:0.992" fill="#7c39a6" d="M 165.5,114.5 C 160.64,115.414 156.473,117.748 153,121.5C 152.138,123.087 151.471,124.754 151,126.5C 150.501,132.157 150.334,137.824 150.5,143.5C 149.512,138.36 149.179,133.026 149.5,127.5C 150.586,118.089 155.92,113.756 165.5,114.5 Z"/></g>
<g><path style="opacity:0.976" fill="#951ec5" d="M 87.5,104.5 C 91.089,105.298 94.4223,106.631 97.5,108.5C 100.167,111.833 103.167,114.833 106.5,117.5C 108.046,119.882 108.713,122.549 108.5,125.5C 110.137,127.923 110.637,130.59 110,133.5C 109.692,132.692 109.192,132.025 108.5,131.5C 107.833,134.167 107.167,136.833 106.5,139.5C 105.583,138.873 104.583,138.539 103.5,138.5C 103.662,136.473 103.495,134.473 103,132.5C 100.238,128.068 96.7381,124.235 92.5,121C 91.5632,120.308 90.8966,120.475 90.5,121.5C 89.1667,120.5 87.8333,119.5 86.5,118.5C 86.1667,117.833 85.8333,117.167 85.5,116.5C 87.1561,117.146 88.8228,117.813 90.5,118.5C 91.4419,118.392 92.2753,118.059 93,117.5C 93.4954,114.469 93.3287,111.469 92.5,108.5C 89.656,108.657 87.9893,107.324 87.5,104.5 Z"/></g>
<g><path style="opacity:1" fill="#7012b9" d="M 143.5,125.5 C 143.25,131.421 143.584,137.421 144.5,143.5C 142.833,143.5 141.167,143.5 139.5,143.5C 139.5,140.833 139.5,138.167 139.5,135.5C 137.508,135.672 135.842,135.005 134.5,133.5C 133.795,131.328 132.795,129.328 131.5,127.5C 132.932,125.703 132.599,124.37 130.5,123.5C 132.14,120.851 133.807,118.184 135.5,115.5C 137.797,114.165 139.797,112.332 141.5,110C 142.167,109.333 142.833,109.333 143.5,110C 143.836,112.507 144.502,115.173 145.5,118C 145.167,119.167 144.833,120.333 144.5,121.5C 143.3,120.469 141.966,119.635 140.5,119C 140.833,118.667 141.167,118.333 141.5,118C 140.552,117.517 139.552,117.351 138.5,117.5C 138.351,118.552 138.517,119.552 139,120.5C 140.966,121.78 142.466,123.447 143.5,125.5 Z"/></g>
<g><path style="opacity:1" fill="#660fb4" d="M 130.5,123.5 C 132.599,124.37 132.932,125.703 131.5,127.5C 132.795,129.328 133.795,131.328 134.5,133.5C 135.842,135.005 137.508,135.672 139.5,135.5C 139.5,138.167 139.5,140.833 139.5,143.5C 141.167,143.5 142.833,143.5 144.5,143.5C 143.584,137.421 143.25,131.421 143.5,125.5C 144.939,127.315 146.606,127.982 148.5,127.5C 148.5,128.833 148.5,130.167 148.5,131.5C 147.5,131.5 146.5,131.5 145.5,131.5C 145.099,135.866 145.099,140.199 145.5,144.5C 146.035,146.271 146.869,146.604 148,145.5C 149.601,148.094 149.767,150.761 148.5,153.5C 144.865,152.304 143.865,153.47 145.5,157C 145.316,158.376 144.649,159.209 143.5,159.5C 142.768,156.932 142.768,154.266 143.5,151.5C 142.448,151.649 141.448,151.483 140.5,151C 143.905,150.033 144.405,148.2 142,145.5C 139.67,143.968 137.67,144.302 136,146.5C 135.517,145.552 135.351,144.552 135.5,143.5C 132.554,141.578 129.554,139.578 126.5,137.5C 126.5,135.167 126.5,132.833 126.5,130.5C 127.874,128.142 129.207,125.808 130.5,123.5 Z"/></g>
<g><path style="opacity:0.969" fill="#d8afe6" d="M 213.5,122.5 C 216,125.66 217.333,129.327 217.5,133.5C 215.777,129.999 214.443,126.332 213.5,122.5 Z"/></g>
<g><path style="opacity:1" fill="#6a11b7" d="M 29.5,119.5 C 30.9179,121.308 32.9179,121.975 35.5,121.5C 35.3398,123.199 35.5065,124.866 36,126.5C 36.7388,128.889 37.9054,130.889 39.5,132.5C 39.2148,134.288 39.5481,135.955 40.5,137.5C 41.8834,134.924 42.7167,135.258 43,138.5C 43.4992,143.155 43.6658,147.821 43.5,152.5C 40.3551,153.077 38.8551,155.077 39,158.5C 38.6892,156.444 38.1892,154.444 37.5,152.5C 41.1694,150.554 42.336,147.554 41,143.5C 40.6667,144.167 40.3333,144.833 40,145.5C 39.5814,144.328 38.9147,143.328 38,142.5C 36.647,143.685 35.4803,145.019 34.5,146.5C 33.6143,145.675 33.281,144.675 33.5,143.5C 32.5,143.5 31.5,143.5 30.5,143.5C 30.6882,145.103 30.1882,146.437 29,147.5C 27.3067,145.424 26.64,143.091 27,140.5C 27.414,140.957 27.914,141.291 28.5,141.5C 29.8591,138.011 29.5258,134.677 27.5,131.5C 28.0354,129.729 28.8687,129.396 30,130.5C 30.4828,129.552 30.6495,128.552 30.5,127.5C 28.3652,127.853 27.0319,127.02 26.5,125C 27.0439,123.415 27.7106,121.915 28.5,120.5C 28.5,119.833 28.8333,119.5 29.5,119.5 Z"/></g>
<g><path style="opacity:0.953" fill="#cb97df" d="M 111.5,126.5 C 113.129,128.858 114.295,131.524 115,134.5C 115.819,140.681 115.653,146.681 114.5,152.5C 114.666,146.824 114.499,141.157 114,135.5C 113.626,133.509 112.793,131.842 111.5,130.5C 111.5,129.167 111.5,127.833 111.5,126.5 Z"/></g>
<g><path style="opacity:1" fill="#600db1" d="M 126.5,137.5 C 129.554,139.578 132.554,141.578 135.5,143.5C 135.351,144.552 135.517,145.552 136,146.5C 137.67,144.302 139.67,143.968 142,145.5C 144.405,148.2 143.905,150.033 140.5,151C 141.448,151.483 142.448,151.649 143.5,151.5C 142.768,154.266 142.768,156.932 143.5,159.5C 140.794,159.425 138.127,159.092 135.5,158.5C 135.546,155.449 134.546,152.782 132.5,150.5C 130.704,149.859 129.204,148.859 128,147.5C 127.417,149.002 126.584,150.335 125.5,151.5C 125.167,150.833 124.833,150.167 124.5,149.5C 126.253,145.754 126.92,141.754 126.5,137.5 Z"/></g>
<g><path style="opacity:1" fill="#8b1bc1" d="M 108.5,125.5 C 109.5,125.5 110.5,125.5 111.5,125.5C 111.5,125.833 111.5,126.167 111.5,126.5C 111.5,127.833 111.5,129.167 111.5,130.5C 113.702,140.734 114.035,151.068 112.5,161.5C 111.833,161.833 111.167,162.167 110.5,162.5C 108.821,162.285 107.821,162.952 107.5,164.5C 105.858,166.081 103.858,166.747 101.5,166.5C 102.242,164.406 102.909,162.239 103.5,160C 103.392,158.319 102.725,157.152 101.5,156.5C 103.232,150.671 103.899,144.671 103.5,138.5C 104.583,138.539 105.583,138.873 106.5,139.5C 107.167,136.833 107.833,134.167 108.5,131.5C 109.192,132.025 109.692,132.692 110,133.5C 110.637,130.59 110.137,127.923 108.5,125.5 Z"/></g>
<g><path style="opacity:1" fill="#8a40ac" d="M 111.5,130.5 C 112.793,131.842 113.626,133.509 114,135.5C 114.499,141.157 114.666,146.824 114.5,152.5C 114.785,155.829 114.118,158.829 112.5,161.5C 114.035,151.068 113.702,140.734 111.5,130.5 Z"/></g>
<g><path style="opacity:1" fill="#620fb1" d="M 28.5,120.5 C 27.7106,121.915 27.0439,123.415 26.5,125C 27.0319,127.02 28.3652,127.853 30.5,127.5C 30.6495,128.552 30.4828,129.552 30,130.5C 28.8687,129.396 28.0354,129.729 27.5,131.5C 29.5258,134.677 29.8591,138.011 28.5,141.5C 27.914,141.291 27.414,140.957 27,140.5C 26.64,143.091 27.3067,145.424 29,147.5C 30.1882,146.437 30.6882,145.103 30.5,143.5C 31.5,143.5 32.5,143.5 33.5,143.5C 33.281,144.675 33.6143,145.675 34.5,146.5C 35.4803,145.019 36.647,143.685 38,142.5C 38.9147,143.328 39.5814,144.328 40,145.5C 40.3333,144.833 40.6667,144.167 41,143.5C 42.336,147.554 41.1694,150.554 37.5,152.5C 38.1892,154.444 38.6892,156.444 39,158.5C 38.8551,155.077 40.3551,153.077 43.5,152.5C 43.6658,147.821 43.4992,143.155 43,138.5C 42.7167,135.258 41.8834,134.924 40.5,137.5C 39.5481,135.955 39.2148,134.288 39.5,132.5C 39.3505,131.448 39.5172,130.448 40,129.5C 40.3333,131.167 40.6667,132.833 41,134.5C 41.3333,134.167 41.6667,133.833 42,133.5C 42.2401,131.148 43.0735,129.148 44.5,127.5C 44.0098,134.204 45.0098,140.537 47.5,146.5C 47.5,146.833 47.5,147.167 47.5,147.5C 47.1259,153.37 48.4593,158.703 51.5,163.5C 51.2527,166.974 50.2527,167.641 48.5,165.5C 47.3861,166.723 47.2195,168.056 48,169.5C 48.9147,170.328 49.5814,171.328 50,172.5C 51.9066,169.713 53.4066,169.88 54.5,173C 52.6248,175.475 50.2914,175.975 47.5,174.5C 46.1839,169.001 43.0173,166.001 38,165.5C 36.0592,161.92 34.8925,158.253 34.5,154.5C 32.3984,154.479 30.2317,154.813 28,155.5C 27.2949,153.014 26.4616,153.014 25.5,155.5C 24.2652,155.279 23.2652,154.612 22.5,153.5C 21.098,145.075 21.4314,136.741 23.5,128.5C 24.449,126.263 25.1156,123.929 25.5,121.5C 26.391,120.89 27.391,120.557 28.5,120.5 Z"/></g>
<g><path style="opacity:1" fill="#893ab0" d="M 206.5,137.5 C 207.674,138.514 208.34,139.847 208.5,141.5C 208.664,144.187 208.497,146.854 208,149.5C 206.231,152.706 204.731,156.039 203.5,159.5C 202.833,159.5 202.167,159.5 201.5,159.5C 203.121,155.927 204.454,152.261 205.5,148.5C 206.482,145.038 206.815,141.371 206.5,137.5 Z"/></g>
<g><path style="opacity:0.992" fill="#956bbb" d="M 25.5,121.5 C 25.1156,123.929 24.449,126.263 23.5,128.5C 22.3995,130.277 21.5662,132.277 21,134.5C 20.5005,140.825 20.3338,147.158 20.5,153.5C 20.1667,153.5 19.8333,153.5 19.5,153.5C 17.9868,143.581 19.1535,133.915 23,124.5C 23.8518,123.429 24.6851,122.429 25.5,121.5 Z"/></g>
<g><path style="opacity:0.11" fill="#cd9cde" d="M 204.5,134.5 C 205.167,135.5 205.833,136.5 206.5,137.5C 206.815,141.371 206.482,145.038 205.5,148.5C 205.563,143.797 205.229,139.13 204.5,134.5 Z"/></g>
<g><path style="opacity:1" fill="#590dab" d="M 126.5,130.5 C 126.5,132.833 126.5,135.167 126.5,137.5C 126.92,141.754 126.253,145.754 124.5,149.5C 124.833,150.167 125.167,150.833 125.5,151.5C 126.584,150.335 127.417,149.002 128,147.5C 129.204,148.859 130.704,149.859 132.5,150.5C 134.546,152.782 135.546,155.449 135.5,158.5C 138.127,159.092 140.794,159.425 143.5,159.5C 140.682,161.487 138.348,163.987 136.5,167C 137.032,169.02 138.365,169.853 140.5,169.5C 140.439,172.05 139.106,173.55 136.5,174C 137.305,175.113 137.972,176.279 138.5,177.5C 134.469,173.676 131.136,169.343 128.5,164.5C 126.828,161.039 125.161,157.706 123.5,154.5C 123.082,146.183 124.082,138.183 126.5,130.5 Z"/></g>
<g><path style="opacity:1" fill="#8b1bc3" d="M 216.5,141.5 C 215.833,148.167 215.167,154.833 214.5,161.5C 213.196,162.987 212.03,164.654 211,166.5C 209.901,162.165 207.734,161.165 204.5,163.5C 203.571,162.311 203.238,160.978 203.5,159.5C 204.731,156.039 206.231,152.706 208,149.5C 208.497,146.854 208.664,144.187 208.5,141.5C 211.204,140.286 213.871,140.286 216.5,141.5 Z"/></g>
<g><path style="opacity:0.992" fill="#743aa4" d="M 47.5,147.5 C 50.0532,155.488 53.3865,163.155 57.5,170.5C 53.9939,169.336 51.9939,167.003 51.5,163.5C 48.4593,158.703 47.1259,153.37 47.5,147.5 Z"/></g>
<g><path style="opacity:0.902" fill="#c691d8" d="M 217.5,133.5 C 218.579,136.617 219.246,139.95 219.5,143.5C 218.934,148.159 218.434,152.826 218,157.5C 216.862,162.443 214.695,166.776 211.5,170.5C 212.787,167.594 213.787,164.594 214.5,161.5C 216.068,159.189 216.902,156.522 217,153.5C 217.5,146.842 217.666,140.175 217.5,133.5 Z"/></g>
<g><path style="opacity:0.784" fill="#b796d4" d="M 19.5,153.5 C 19.8333,153.5 20.1667,153.5 20.5,153.5C 20.9281,156.785 21.9281,159.785 23.5,162.5C 23.5,163.5 23.5,164.5 23.5,165.5C 20.7925,162.044 19.4591,158.044 19.5,153.5 Z"/></g>
<g><path style="opacity:1" fill="#5a0dae" d="M 51.5,163.5 C 51.9939,167.003 53.9939,169.336 57.5,170.5C 57.5858,171.496 57.2524,172.329 56.5,173C 58.9102,173.057 60.2435,174.224 60.5,176.5C 60.4142,177.496 60.7476,178.329 61.5,179C 60.8333,179.333 60.1667,179.667 59.5,180C 60.3567,180.689 61.0233,181.522 61.5,182.5C 58.0333,184 54.5333,184.333 51,183.5C 49.2725,183.899 47.7725,184.566 46.5,185.5C 43.3111,184.486 40.4778,182.82 38,180.5C 38.1862,176.706 39.3529,176.54 41.5,180C 46.4424,181.328 51.4424,181.661 56.5,181C 51.3081,180.18 46.3081,178.68 41.5,176.5C 40.8333,175.833 40.1667,175.167 39.5,174.5C 40.6446,173.109 40.6446,171.776 39.5,170.5C 38.5,171.833 37.5,173.167 36.5,174.5C 35.7078,172.535 35.0412,170.535 34.5,168.5C 33.675,167.614 32.675,167.281 31.5,167.5C 31.6427,165.738 31.3094,164.071 30.5,162.5C 32.542,161.497 32.8754,160.163 31.5,158.5C 29.296,157.794 27.296,156.794 25.5,155.5C 26.4616,153.014 27.2949,153.014 28,155.5C 30.2317,154.813 32.3984,154.479 34.5,154.5C 34.8925,158.253 36.0592,161.92 38,165.5C 43.0173,166.001 46.1839,169.001 47.5,174.5C 50.2914,175.975 52.6248,175.475 54.5,173C 53.4066,169.88 51.9066,169.713 50,172.5C 49.5814,171.328 48.9147,170.328 48,169.5C 47.2195,168.056 47.3861,166.723 48.5,165.5C 50.2527,167.641 51.2527,166.974 51.5,163.5 Z"/></g>
<g><path style="opacity:1" fill="#600fb0" d="M 148.5,127.5 C 148.833,127.5 149.167,127.5 149.5,127.5C 149.179,133.026 149.512,138.36 150.5,143.5C 150.309,148.899 150.809,154.233 152,159.5C 154.102,163.372 155.936,167.372 157.5,171.5C 157.62,173.734 157.287,175.901 156.5,178C 157.544,179.174 158.544,180.341 159.5,181.5C 157.143,181.663 154.81,181.497 152.5,181C 150.606,179.921 150.273,178.587 151.5,177C 148.078,175.594 147.745,173.761 150.5,171.5C 152.111,172.32 152.778,173.654 152.5,175.5C 153.552,175.649 154.552,175.483 155.5,175C 154.289,171.693 152.956,169.193 151.5,167.5C 150.5,167.5 149.5,167.5 148.5,167.5C 148.067,170.166 147.567,172.832 147,175.5C 146.275,173.842 145.108,173.342 143.5,174C 142.027,174.71 141.36,175.876 141.5,177.5C 140.5,177.5 139.5,177.5 138.5,177.5C 137.972,176.279 137.305,175.113 136.5,174C 139.106,173.55 140.439,172.05 140.5,169.5C 138.365,169.853 137.032,169.02 136.5,167C 138.348,163.987 140.682,161.487 143.5,159.5C 144.649,159.209 145.316,158.376 145.5,157C 143.865,153.47 144.865,152.304 148.5,153.5C 149.767,150.761 149.601,148.094 148,145.5C 146.869,146.604 146.035,146.271 145.5,144.5C 145.099,140.199 145.099,135.866 145.5,131.5C 146.5,131.5 147.5,131.5 148.5,131.5C 148.5,130.167 148.5,128.833 148.5,127.5 Z"/></g>
<g><path style="opacity:0.961" fill="#6d3a9e" d="M 150.5,143.5 C 151.66,153.104 154.827,162.104 160,170.5C 161.397,172.07 162.897,173.404 164.5,174.5C 161.805,174.319 159.472,173.319 157.5,171.5C 155.936,167.372 154.102,163.372 152,159.5C 150.809,154.233 150.309,148.899 150.5,143.5 Z"/></g>
<g><path style="opacity:0.992" fill="#8035ad" d="M 110.5,162.5 C 110.167,164.5 109.833,166.5 109.5,168.5C 107.967,172.704 105.3,176.037 101.5,178.5C 104.053,174.208 106.053,169.541 107.5,164.5C 107.821,162.952 108.821,162.285 110.5,162.5 Z"/></g>
<g><path style="opacity:1" fill="#7a4fa4" d="M 123.5,154.5 C 125.161,157.706 126.828,161.039 128.5,164.5C 128.5,165.833 128.5,167.167 128.5,168.5C 125.266,164.469 123.599,159.802 123.5,154.5 Z"/></g>
<g><path style="opacity:0.984" fill="#5c2a97" d="M 23.5,162.5 C 24.5072,163.828 25.8405,164.828 27.5,165.5C 28.978,170.449 30.978,175.116 33.5,179.5C 29.0099,175.674 25.6766,171.007 23.5,165.5C 23.5,164.5 23.5,163.5 23.5,162.5 Z"/></g>
<g><path style="opacity:0.604" fill="#b582d0" d="M 112.5,161.5 C 112.293,164.241 111.293,166.574 109.5,168.5C 109.833,166.5 110.167,164.5 110.5,162.5C 111.167,162.167 111.833,161.833 112.5,161.5 Z"/></g>
<g><path style="opacity:1" fill="#5512a4" d="M 23.5,128.5 C 21.4314,136.741 21.098,145.075 22.5,153.5C 23.2652,154.612 24.2652,155.279 25.5,155.5C 27.296,156.794 29.296,157.794 31.5,158.5C 32.8754,160.163 32.542,161.497 30.5,162.5C 31.3094,164.071 31.6427,165.738 31.5,167.5C 32.675,167.281 33.675,167.614 34.5,168.5C 35.0412,170.535 35.7078,172.535 36.5,174.5C 37.5,173.167 38.5,171.833 39.5,170.5C 40.6446,171.776 40.6446,173.109 39.5,174.5C 40.1667,175.167 40.8333,175.833 41.5,176.5C 46.3081,178.68 51.3081,180.18 56.5,181C 51.4424,181.661 46.4424,181.328 41.5,180C 39.3529,176.54 38.1862,176.706 38,180.5C 40.4778,182.82 43.3111,184.486 46.5,185.5C 51.9439,188.273 57.6106,190.273 63.5,191.5C 61.8333,191.5 60.1667,191.5 58.5,191.5C 54.4848,190.488 50.4848,189.488 46.5,188.5C 41.6355,186.237 37.3021,183.237 33.5,179.5C 30.978,175.116 28.978,170.449 27.5,165.5C 25.8405,164.828 24.5072,163.828 23.5,162.5C 21.9281,159.785 20.9281,156.785 20.5,153.5C 20.3338,147.158 20.5005,140.825 21,134.5C 21.5662,132.277 22.3995,130.277 23.5,128.5 Z"/></g>
<g><path style="opacity:1" fill="#7232a3" d="M 201.5,159.5 C 201.657,160.873 201.49,162.207 201,163.5C 195.469,170.517 188.302,174.85 179.5,176.5C 179.5,176.167 179.5,175.833 179.5,175.5C 188.236,172.098 195.569,166.765 201.5,159.5 Z"/></g>
<g><path style="opacity:0.992" fill="#7833a2" d="M 90.5,121.5 C 90.8966,120.475 91.5632,120.308 92.5,121C 96.7381,124.235 100.238,128.068 103,132.5C 103.495,134.473 103.662,136.473 103.5,138.5C 103.899,144.671 103.232,150.671 101.5,156.5C 100.013,160.177 97.8465,163.511 95,166.5C 91.1876,169.312 87.3543,171.979 83.5,174.5C 81.283,175.369 78.9496,175.702 76.5,175.5C 88.8144,170.685 97.3144,162.018 102,149.5C 103.942,137.726 100.109,128.393 90.5,121.5 Z"/></g>
<g><path style="opacity:0.976" fill="#532193" d="M 128.5,164.5 C 131.136,169.343 134.469,173.676 138.5,177.5C 139.5,177.5 140.5,177.5 141.5,177.5C 141.468,180.076 142.135,182.409 143.5,184.5C 137.096,180.431 132.096,175.098 128.5,168.5C 128.5,167.167 128.5,165.833 128.5,164.5 Z"/></g>
<g><path style="opacity:1" fill="#570fa7" d="M 159.5,181.5 C 159.918,182.222 160.584,182.722 161.5,183C 160.284,184.74 158.618,185.74 156.5,186C 157.5,187 158.5,188 159.5,189C 168.131,190.792 176.798,190.958 185.5,189.5C 184.833,190.167 184.167,190.833 183.5,191.5C 183.167,191.5 182.833,191.5 182.5,191.5C 174.826,191.666 167.159,191.5 159.5,191C 157.221,190.527 155.221,189.527 153.5,188C 151.866,187.506 150.199,187.34 148.5,187.5C 146.566,186.89 144.899,185.89 143.5,184.5C 142.135,182.409 141.468,180.076 141.5,177.5C 141.36,175.876 142.027,174.71 143.5,174C 145.108,173.342 146.275,173.842 147,175.5C 147.567,172.832 148.067,170.166 148.5,167.5C 149.5,167.5 150.5,167.5 151.5,167.5C 152.956,169.193 154.289,171.693 155.5,175C 154.552,175.483 153.552,175.649 152.5,175.5C 152.778,173.654 152.111,172.32 150.5,171.5C 147.745,173.761 148.078,175.594 151.5,177C 150.273,178.587 150.606,179.921 152.5,181C 154.81,181.497 157.143,181.663 159.5,181.5 Z"/></g>
<g><path style="opacity:0.514" fill="#9c6fc5" d="M 164.5,174.5 C 169.438,175.392 174.438,175.726 179.5,175.5C 179.5,175.833 179.5,176.167 179.5,176.5C 174.821,176.666 170.155,176.499 165.5,176C 164.944,175.617 164.611,175.117 164.5,174.5 Z"/></g>
<g><path style="opacity:0.929" fill="#682e9d" d="M 57.5,170.5 C 62.4602,175.819 68.4602,177.486 75.5,175.5C 73.5379,177.017 71.2046,177.684 68.5,177.5C 65.8031,177.297 63.1364,176.964 60.5,176.5C 60.2435,174.224 58.9102,173.057 56.5,173C 57.2524,172.329 57.5858,171.496 57.5,170.5 Z"/></g>
<g><path style="opacity:1" fill="#7414ba" d="M 101.5,156.5 C 102.725,157.152 103.392,158.319 103.5,160C 102.909,162.239 102.242,164.406 101.5,166.5C 103.858,166.747 105.858,166.081 107.5,164.5C 106.053,169.541 104.053,174.208 101.5,178.5C 98.6994,179.766 95.6994,180.599 92.5,181C 91.944,181.383 91.6107,181.883 91.5,182.5C 89.6159,182.712 88.2826,183.712 87.5,185.5C 85.0093,183.942 82.3426,182.942 79.5,182.5C 79.6715,180.508 79.0049,178.842 77.5,177.5C 79.9749,177.036 81.9749,176.036 83.5,174.5C 87.3543,171.979 91.1876,169.312 95,166.5C 97.8465,163.511 100.013,160.177 101.5,156.5 Z"/></g>
<g><path style="opacity:0.997" fill="#6210af" d="M 157.5,171.5 C 159.472,173.319 161.805,174.319 164.5,174.5C 164.611,175.117 164.944,175.617 165.5,176C 170.155,176.499 174.821,176.666 179.5,176.5C 176.788,179.416 177.122,182.083 180.5,184.5C 181.72,185.711 182.887,185.711 184,184.5C 184.41,185.901 184.91,187.234 185.5,188.5C 185.5,188.833 185.5,189.167 185.5,189.5C 176.798,190.958 168.131,190.792 159.5,189C 158.5,188 157.5,187 156.5,186C 158.618,185.74 160.284,184.74 161.5,183C 160.584,182.722 159.918,182.222 159.5,181.5C 158.544,180.341 157.544,179.174 156.5,178C 157.287,175.901 157.62,173.734 157.5,171.5 Z"/></g>
<g><path style="opacity:1" fill="#7415b7" d="M 201.5,159.5 C 202.167,159.5 202.833,159.5 203.5,159.5C 203.238,160.978 203.571,162.311 204.5,163.5C 207.734,161.165 209.901,162.165 211,166.5C 212.03,164.654 213.196,162.987 214.5,161.5C 213.787,164.594 212.787,167.594 211.5,170.5C 210.864,172.795 209.531,174.461 207.5,175.5C 204.5,175.167 203.167,176.5 203.5,179.5C 197.971,183.343 191.971,186.343 185.5,188.5C 184.91,187.234 184.41,185.901 184,184.5C 182.887,185.711 181.72,185.711 180.5,184.5C 177.122,182.083 176.788,179.416 179.5,176.5C 188.302,174.85 195.469,170.517 201,163.5C 201.49,162.207 201.657,160.873 201.5,159.5 Z"/></g>
<g><path style="opacity:1" fill="#7d44a9" d="M 207.5,175.5 C 203.617,181.624 198.283,186.124 191.5,189C 188.904,190.136 186.237,190.969 183.5,191.5C 184.167,190.833 184.833,190.167 185.5,189.5C 185.5,189.167 185.5,188.833 185.5,188.5C 191.971,186.343 197.971,183.343 203.5,179.5C 203.167,176.5 204.5,175.167 207.5,175.5 Z"/></g>
<g><path style="opacity:1" fill="#5f0faf" d="M 83.5,174.5 C 81.9749,176.036 79.9749,177.036 77.5,177.5C 79.0049,178.842 79.6715,180.508 79.5,182.5C 82.3426,182.942 85.0093,183.942 87.5,185.5C 88.2826,183.712 89.6159,182.712 91.5,182.5C 91.4606,183.583 91.1272,184.583 90.5,185.5C 82.0743,189.961 73.0743,191.961 63.5,191.5C 57.6106,190.273 51.9439,188.273 46.5,185.5C 47.7725,184.566 49.2725,183.899 51,183.5C 54.5333,184.333 58.0333,184 61.5,182.5C 61.0233,181.522 60.3567,180.689 59.5,180C 60.1667,179.667 60.8333,179.333 61.5,179C 60.7476,178.329 60.4142,177.496 60.5,176.5C 63.1364,176.964 65.8031,177.297 68.5,177.5C 71.2046,177.684 73.5379,177.017 75.5,175.5C 75.8333,175.5 76.1667,175.5 76.5,175.5C 78.9496,175.702 81.283,175.369 83.5,174.5 Z"/></g>
<g><path style="opacity:0.984" fill="#6a2f9c" d="M 101.5,178.5 C 89.7529,190.664 75.4196,195.331 58.5,192.5C 58.5,192.167 58.5,191.833 58.5,191.5C 60.1667,191.5 61.8333,191.5 63.5,191.5C 73.0743,191.961 82.0743,189.961 90.5,185.5C 91.1272,184.583 91.4606,183.583 91.5,182.5C 91.6107,181.883 91.944,181.383 92.5,181C 95.6994,180.599 98.6994,179.766 101.5,178.5 Z"/></g>
<g><path style="opacity:0.992" fill="#875fb0" d="M 46.5,188.5 C 50.4848,189.488 54.4848,190.488 58.5,191.5C 58.5,191.833 58.5,192.167 58.5,192.5C 54.0845,192.139 50.0845,190.806 46.5,188.5 Z"/></g>
<g><path style="opacity:0.976" fill="#693597" d="M 148.5,187.5 C 150.199,187.34 151.866,187.506 153.5,188C 155.221,189.527 157.221,190.527 159.5,191C 167.159,191.5 174.826,191.666 182.5,191.5C 174.697,193.957 166.697,194.123 158.5,192C 154.771,191.156 151.437,189.656 148.5,187.5 Z"/></g>
</svg>
